<?xml version="1.0" encoding="utf-8"?>
<!-- Generator: Adobe Illustrator 16.2.0, SVG Export Plug-In . SVG Version: 6.00 Build 0)  -->
<!DOCTYPE svg PUBLIC "-//W3C//DTD SVG 1.1//EN" "http://www.w3.org/Graphics/SVG/1.1/DTD/svg11.dtd">
<svg version="1.1" id="Layer_1" xmlns="http://www.w3.org/2000/svg" xmlns:xlink="http://www.w3.org/1999/xlink" x="0px" y="0px"
	 width="300px" height="300px" viewBox="0 0 300 300" enable-background="new 0 0 300 300" xml:space="preserve">
<g>
	<path fill="#CC0000" d="M297.601,150.402c0,81.295-65.902,147.2-147.199,147.2c-81.295,0-147.199-65.904-147.199-147.2
		c0-81.299,65.904-147.199,147.199-147.199C231.698,3.203,297.601,69.103,297.601,150.402z"/>
	<path fill="#FFFFFF" d="M55.241,190.312l-19.099-19.101l97.938-97.936c14.097-14.095,30.142-21.034,48.158-20.84
		c17.997,0.212,33.706,7.026,47.111,20.43c14.786,14.79,22.168,29.648,22.182,44.555c-0.006,14.932-5.421,27.79-16.227,38.593
		c-13.822,13.824-30.188,17.328-49.075,10.481l-0.816,0.816c12.598,22.728,9.174,43.818-10.25,63.241
		c-26.571,26.569-55.523,24.158-86.859-7.176l-25.665-25.668l18.066-18.071l25.456,25.453c9.452,9.452,18.273,14.453,26.483,14.993
		c8.212,0.564,16.574-3.419,25.057-11.903c7.387-7.388,10.705-15.432,9.953-24.12c-0.758-8.688-5.172-17.078-13.243-25.155
		l-20.329-20.323l17.046-17.049l13.143,13.144c7.391,7.39,15.738,11.687,25.048,12.931c9.301,1.233,17.38-1.572,24.223-8.426
		c6.57-6.565,10.025-14.062,10.372-22.483c0.338-8.41-3.996-17.134-13.04-26.175c-8.206-8.209-17.488-12.353-27.814-12.422
		c-10.344-0.067-20.438,4.833-30.286,14.682L55.241,190.312z"/>
</g>
</svg>
