<?xml version="1.0" encoding="utf-8"?>
<!-- Generator: Adobe Illustrator 16.2.0, SVG Export Plug-In . SVG Version: 6.00 Build 0)  -->
<!DOCTYPE svg PUBLIC "-//W3C//DTD SVG 1.1//EN" "http://www.w3.org/Graphics/SVG/1.1/DTD/svg11.dtd">
<svg version="1.1" id="Layer_1" xmlns="http://www.w3.org/2000/svg" xmlns:xlink="http://www.w3.org/1999/xlink" x="0px" y="0px"
	 width="450px" height="450px" viewBox="0 0 450 450" enable-background="new 0 0 450 450" xml:space="preserve">
<g>
	<path fill="#CC0000" d="M446.698,225c0,122.44-99.256,221.699-221.698,221.699C102.56,446.699,3.301,347.44,3.301,225
		C3.301,102.554,102.56,3.301,225,3.301C347.442,3.301,446.698,102.554,446.698,225z"/>
	<path fill="#FFFFFF" d="M81.677,285.109l-28.765-28.767L200.417,108.84c21.231-21.229,45.397-31.68,72.532-31.388
		c27.106,0.319,50.767,10.583,70.956,30.77c22.27,22.276,33.387,44.654,33.408,67.105c-0.01,22.488-8.164,41.854-24.439,58.125
		c-20.818,20.82-45.467,26.098-73.914,15.786l-1.229,1.229c18.973,34.229,13.816,65.995-15.438,95.248
		c-40.019,40.017-83.625,36.385-130.82-10.808L92.818,296.25l27.21-27.218l38.34,38.335c14.236,14.236,27.522,21.769,39.887,22.582
		c12.369,0.85,24.963-5.149,37.738-17.928c11.126-11.127,16.124-23.241,14.991-36.328c-1.141-13.084-7.79-25.722-19.946-37.887
		l-30.618-30.609l25.673-25.677l19.794,19.796c11.131,11.129,23.704,17.601,37.724,19.475c14.01,1.857,26.178-2.368,36.482-12.69
		c9.896-9.888,15.1-21.18,15.621-33.862c0.51-12.667-6.018-25.806-19.639-39.422c-12.359-12.364-26.34-18.605-41.892-18.709
		c-15.579-0.102-30.783,7.279-45.614,22.112L81.677,285.109z"/>
</g>
</svg>
