<?xml version="1.0" encoding="utf-8"?>
<!-- Generator: Adobe Illustrator 16.2.0, SVG Export Plug-In . SVG Version: 6.00 Build 0)  -->
<!DOCTYPE svg PUBLIC "-//W3C//DTD SVG 1.1//EN" "http://www.w3.org/Graphics/SVG/1.1/DTD/svg11.dtd">
<svg version="1.1" id="Layer_1" xmlns="http://www.w3.org/2000/svg" xmlns:xlink="http://www.w3.org/1999/xlink" x="0px" y="0px"
	 width="150px" height="150px" viewBox="0 0 150 150" enable-background="new 0 0 150 150" xml:space="preserve">
<g>
	<path fill="#41415B" d="M75.419,1.585c-40.593,0-73.5,32.907-73.5,73.5c0,40.592,32.907,73.5,73.5,73.5
		c40.594,0,73.5-32.908,73.5-73.5C148.92,34.492,116.014,1.585,75.419,1.585z M118.17,78.246
		c-6.902,6.903-15.072,8.651-24.503,5.234l-0.407,0.407c6.291,11.348,4.581,21.879-5.118,31.578
		c-13.268,13.268-27.723,12.062-43.371-3.584L31.954,99.065l9.023-9.023l12.711,12.71c4.719,4.72,9.124,7.217,13.223,7.484
		c4.101,0.282,8.276-1.706,12.513-5.942c3.688-3.688,5.346-7.705,4.969-12.044c-0.378-4.337-2.582-8.527-6.613-12.56l-10.15-10.149
		l8.512-8.511l6.562,6.562c3.69,3.69,7.86,5.837,12.507,6.458c4.645,0.615,8.676-0.786,12.096-4.206
		c3.281-3.28,5.006-7.023,5.178-11.228c0.17-4.2-1.994-8.555-6.51-13.07c-4.098-4.098-8.733-6.169-13.888-6.202
		c-5.165-0.033-10.205,2.413-15.124,7.331L28.262,95.372l-9.537-9.535l48.904-48.904c7.037-7.038,15.051-10.503,24.045-10.406
		c8.985,0.107,16.831,3.509,23.524,10.201c7.385,7.385,11.07,14.804,11.076,22.248C126.27,66.432,123.566,72.851,118.17,78.246z"/>
</g>
</svg>
