<?xml version="1.0" encoding="utf-8"?>
<!-- Generator: Adobe Illustrator 16.2.0, SVG Export Plug-In . SVG Version: 6.00 Build 0)  -->
<!DOCTYPE svg PUBLIC "-//W3C//DTD SVG 1.1//EN" "http://www.w3.org/Graphics/SVG/1.1/DTD/svg11.dtd">
<svg version="1.1" id="Layer_1" xmlns="http://www.w3.org/2000/svg" xmlns:xlink="http://www.w3.org/1999/xlink" x="0px" y="0px"
	 width="160px" height="42px" viewBox="0 0 160 42" enable-background="new 0 0 160 42" xml:space="preserve">
<g>
	<path fill="#FFFFFF" d="M5.163,31.2H1.25V11.138c0-2.889,0.935-5.243,2.798-7.067C5.913,2.25,8.22,1.339,10.965,1.339
		c3.03,0,5.309,0.766,6.836,2.291c1.528,1.53,2.292,3.4,2.292,5.613c0,2.834-1.318,4.866-3.955,6.101v0.168
		c3.619,1.038,5.429,3.547,5.429,7.527c0,5.443-3.212,8.162-9.632,8.162H6.678v-3.702h5.215c1.935,0,3.352-0.39,4.246-1.178
		c0.9-0.782,1.349-2.047,1.349-3.785c0-1.513-0.484-2.677-1.452-3.49c-0.968-0.811-2.278-1.22-3.933-1.22H7.939v-3.491h2.692
		c1.513,0,2.809-0.415,3.89-1.241c1.08-0.828,1.617-1.942,1.617-3.346c0-1.344-0.411-2.465-1.24-3.364
		c-0.826-0.896-2.164-1.345-4.015-1.345c-1.683,0-3.058,0.526-4.12,1.576c-1.066,1.054-1.6,2.587-1.6,4.606V31.2z"/>
	<path fill="#FFFFFF" d="M26.663,13.662c1.963-2.047,4.417-3.07,7.359-3.07c1.433,0,2.771,0.275,4.018,0.818
		c1.247,0.547,2.342,1.298,3.28,2.252c0.94,0.952,1.674,2.067,2.208,3.343c0.531,1.276,0.798,2.643,0.798,4.101
		c0,1.459-0.259,2.826-0.776,4.101c-0.52,1.277-1.24,2.391-2.166,3.344c-0.926,0.953-2.02,1.703-3.282,2.25
		c-1.262,0.547-2.622,0.822-4.081,0.822c-1.485,0-2.851-0.275-4.1-0.822c-1.248-0.547-2.334-1.297-3.259-2.25
		c-0.925-0.953-1.648-2.066-2.166-3.344c-0.521-1.275-0.78-2.641-0.78-4.101C23.718,18.134,24.699,15.652,26.663,13.662z
		 M34.022,14.124c-1.96,0-3.54,0.645-4.731,1.937c-1.19,1.288-1.787,2.97-1.787,5.045c0,2.077,0.596,3.759,1.787,5.048
		c1.191,1.291,2.771,1.934,4.731,1.934c1.992,0,3.577-0.652,4.753-1.954c1.178-1.303,1.767-2.981,1.767-5.027
		s-0.589-3.721-1.767-5.025C37.599,14.776,36.014,14.124,34.022,14.124z"/>
	<path fill="#FFFFFF" d="M49.425,13.662c1.963-2.047,4.417-3.07,7.36-3.07c1.431,0,2.769,0.275,4.018,0.818
		c1.247,0.547,2.339,1.298,3.279,2.252c0.94,0.952,1.676,2.067,2.208,3.343c0.533,1.276,0.798,2.643,0.798,4.101
		c0,1.459-0.259,2.826-0.776,4.101c-0.52,1.277-1.241,2.391-2.167,3.344c-0.926,0.953-2.019,1.703-3.282,2.25
		c-1.259,0.547-2.621,0.822-4.079,0.822c-1.486,0-2.853-0.275-4.101-0.822c-1.248-0.547-2.333-1.297-3.26-2.25
		c-0.926-0.953-1.647-2.066-2.166-3.344c-0.521-1.275-0.777-2.641-0.777-4.101C46.482,18.134,47.462,15.652,49.425,13.662z
		 M56.786,14.124c-1.962,0-3.542,0.645-4.732,1.937c-1.19,1.288-1.787,2.97-1.787,5.045c0,2.077,0.597,3.759,1.787,5.048
		c1.191,1.291,2.771,1.934,4.732,1.934c1.99,0,3.576-0.652,4.752-1.954c1.179-1.303,1.766-2.981,1.766-5.027
		s-0.587-3.721-1.766-5.025C60.361,14.776,58.776,14.124,56.786,14.124z"/>
	<path fill="#FFFFFF" d="M69.397,11.011h18.546c1.992,0,3.577,0.378,4.755,1.136c1.205,0.757,1.997,1.741,2.375,2.943
		c0.379,1.207,0.569,2.651,0.569,4.333V31.2H91.94V19.423c0-2.187-0.658-3.629-1.976-4.333c-0.672-0.363-2.034-0.547-4.081-0.547
		H84.16V31.2h-3.701V14.544h-7.361V31.2h-3.701V11.011z"/>
	<path fill="#FFFFFF" d="M98.24,40.789V21.105c0-1.458,0.268-2.832,0.801-4.123c0.532-1.287,1.262-2.402,2.186-3.34
		c0.927-0.938,2.021-1.685,3.281-2.232c1.262-0.543,2.606-0.818,4.037-0.818s2.771,0.275,4.019,0.818
		c1.246,0.547,2.339,1.298,3.282,2.252c0.936,0.952,1.672,2.067,2.206,3.343c0.53,1.276,0.8,2.643,0.8,4.101
		c0,1.459-0.261,2.826-0.78,4.101c-0.518,1.277-1.24,2.391-2.167,3.344c-0.922,0.953-2.017,1.703-3.276,2.25
		c-1.266,0.547-2.626,0.822-4.083,0.822c-1.794,0-3.462-0.422-5.005-1.264v-3.784c1.376,1.008,3,1.513,4.88,1.513
		c1.01,0,1.928-0.173,2.757-0.525c0.825-0.35,1.526-0.833,2.1-1.453c0.575-0.614,1.017-1.351,1.326-2.205
		c0.309-0.857,0.463-1.79,0.463-2.799c0-1.009-0.154-1.94-0.463-2.796c-0.31-0.855-0.744-1.589-1.305-2.208
		c-0.562-0.616-1.24-1.102-2.038-1.452c-0.802-0.349-1.702-0.525-2.715-0.525c-0.982,0-1.871,0.167-2.671,0.505
		c-0.797,0.337-1.486,0.812-2.061,1.432c-0.574,0.614-1.017,1.352-1.325,2.207c-0.307,0.854-0.463,1.801-0.463,2.838v19.684H98.24z"
		/>
	<path fill="#FFFFFF" d="M132.046,19.342v3.782c-1.064-0.812-2.367-1.218-3.91-1.218c-1.317,0-2.341,0.259-3.07,0.777
		c-0.731,0.52-1.092,1.256-1.092,2.209c0,1.851,1.371,2.776,4.119,2.776h5.553v-8.034c0-3.394-1.655-5.09-4.964-5.09h-6.729v-3.533
		h6.938c2.723,0,4.812,0.673,6.269,2.019c1.457,1.347,2.189,3.28,2.189,5.807V31.2h-9.382c-2.383,0-4.275-0.533-5.676-1.599
		c-1.405-1.066-2.105-2.622-2.105-4.669s0.745-3.602,2.229-4.669c1.488-1.063,3.351-1.598,5.595-1.598
		C129.271,18.665,130.618,18.892,132.046,19.342z"/>
	<path fill="#FFFFFF" d="M144.042,1.758v9.253h3.574c3.113,0,5.341,0.463,6.689,1.39c1.204,0.812,1.969,1.786,2.29,2.923
		c0.322,1.134,0.485,2.629,0.485,4.477V31.2h-3.703V19.844c0-0.502-0.013-0.931-0.04-1.282c-0.029-0.352-0.129-0.799-0.296-1.348
		c-0.168-0.545-0.405-0.995-0.714-1.345c-0.312-0.352-0.758-0.658-1.348-0.926c-0.588-0.265-1.304-0.399-2.146-0.399h-4.793V31.2
		h-3.701V1.758H144.042z"/>
</g>
</svg>
